<?xml version="1.0" encoding="UTF-8" standalone="no"?>
<!-- Created with Inkscape (http://www.inkscape.org/) -->

<svg
   xmlns:dc="http://purl.org/dc/elements/1.1/"
   xmlns:cc="http://creativecommons.org/ns#"
   xmlns:rdf="http://www.w3.org/1999/02/22-rdf-syntax-ns#"
   xmlns:svg="http://www.w3.org/2000/svg"
   xmlns="http://www.w3.org/2000/svg"
   xmlns:sodipodi="http://sodipodi.sourceforge.net/DTD/sodipodi-0.dtd"
   xmlns:inkscape="http://www.inkscape.org/namespaces/inkscape"
   inkscape:version="0.91 r13725"
   version="1.1"
   id="svg2"
   viewBox="0 0 600.00001 600.00001"
   height="600"
   width="600"
   sodipodi:docname="gs3.svg">
  <sodipodi:namedview
     inkscape:window-maximized="1"
     inkscape:window-y="-8"
     inkscape:window-x="1912"
     inkscape:window-height="1018"
     inkscape:window-width="1920"
     inkscape:snap-nodes="false"
     inkscape:snap-smooth-nodes="false"
     inkscape:object-nodes="true"
     inkscape:snap-intersection-paths="false"
     inkscape:object-paths="true"
     inkscape:snap-bbox-edge-midpoints="false"
     inkscape:bbox-nodes="false"
     inkscape:bbox-paths="false"
     inkscape:snap-bbox="false"
     showgrid="false"
     inkscape:current-layer="layer1"
     inkscape:document-units="px"
     inkscape:cy="279.47463"
     inkscape:cx="323.31378"
     inkscape:zoom="1.3055898"
     inkscape:pageshadow="2"
     inkscape:pageopacity="0.0"
     borderopacity="1.0"
     bordercolor="#666666"
     pagecolor="#ffffff"
     id="base"
     units="px" />
  <defs
     id="defs4">
    <inkscape:path-effect
       effect="spiro"
       id="path-effect5554"
       is_visible="true" />
    <inkscape:path-effect
       effect="spiro"
       id="path-effect4256"
       is_visible="true" />
    <inkscape:path-effect
       effect="spiro"
       id="path-effect4223"
       is_visible="true" />
    <inkscape:path-effect
       effect="spiro"
       id="path-effect4219"
       is_visible="true" />
    <inkscape:path-effect
       effect="spiro"
       id="path-effect4215"
       is_visible="true" />
  </defs>
  <metadata
     id="metadata7">
    <rdf:RDF>
      <cc:Work
         rdf:about="">
        <dc:format>image/svg+xml</dc:format>
        <dc:type
           rdf:resource="http://purl.org/dc/dcmitype/StillImage" />
        <dc:title></dc:title>
      </cc:Work>
    </rdf:RDF>
  </metadata>
  <g
     inkscape:label="Layer 1"
     inkscape:groupmode="layer"
     id="layer1"
     transform="translate(0,-452.36216)">
    <g
       id="g5694"
       transform="matrix(1.368915,0,0,1.368915,-170.14213,174.54817)">
      <path
         id="path5464"
         d="m 271.8184,385.9771 a 9.1056171,18.839821 24.705838 0 1 4.26255,1.94392 9.1056171,18.839821 24.705838 0 0 -9.74268,15.56175 l -0.004,0.014 a 9.1056171,18.839821 24.705838 0 0 0.34282,14.76342 9.1056171,18.839821 24.705838 0 1 -5.73293,2.74673 9.1056171,18.839821 24.705838 0 1 -4.60989,-16.70503 l 0.004,-0.014 A 9.1056171,18.839821 24.705838 0 1 271.8184,385.9771 Z"
         style="color:#000000;clip-rule:nonzero;display:inline;overflow:visible;visibility:visible;opacity:1;isolation:auto;mix-blend-mode:normal;color-interpolation:sRGB;color-interpolation-filters:linearRGB;solid-color:#000000;solid-opacity:1;fill:#000000;fill-opacity:1;fill-rule:evenodd;stroke:none;stroke-width:13.08199978;stroke-linecap:butt;stroke-linejoin:miter;stroke-miterlimit:4;stroke-dasharray:none;stroke-dashoffset:13.64211082;stroke-opacity:1;color-rendering:auto;image-rendering:auto;shape-rendering:auto;text-rendering:auto;enable-background:accumulate"
         inkscape:connector-curvature="0" />
      <path
         d="m 434.21595,406.83341 -40.16,3.23336 28.48641,-59.8935 40.16,-3.23336 -6.21072,12.98004 -25.76,2.07398 -5.2762,11.2248 21.28,-1.71329 -6.21073,12.98004 -21.28,1.71329 -4.57804,9.72859 25.76,-2.07399 -6.21072,12.98004 z"
         style="font-style:normal;font-variant:normal;font-weight:normal;font-stretch:normal;font-size:80px;line-height:125%;font-family:'Fugaz One';-inkscape-font-specification:'Fugaz One';letter-spacing:0px;word-spacing:0px;fill:#000000;fill-opacity:1;stroke:none;stroke-width:1px;stroke-linecap:butt;stroke-linejoin:miter;stroke-opacity:1"
         id="path5571"
         inkscape:connector-curvature="0" />
      <path
         d="m 365.72643,414.02764 q -11.36,0.91461 -14.00008,-4.15283 -1.78914,-3.53595 0.24712,-10.0999 0.94178,-3.03582 2.70173,-6.69752 l 7.89067,-16.63529 q 10.5815,-22.29194 33.0615,-24.10185 9.28,-0.74715 12.80733,2.96886 3.55278,3.63395 1.36379,10.69019 -0.89086,2.87173 -2.60718,5.88991 -1.63632,3.01175 -2.81448,4.5466 l -1.25816,1.5413 -14.16,1.14005 q 2.99632,-3.12124 4.19262,-6.97756 2.29081,-7.38443 -3.70919,-6.90136 -8.08,0.65054 -12.65805,10.37912 l -7.60704,15.97246 q -1.08724,2.24754 -1.74903,4.38082 -1.75628,5.6614 4.72372,5.13969 6.56,-0.52816 10.48717,-7.40435 l -6.56,0.52816 4.42533,-9.23629 21.2,-1.70686 -3.46899,7.1593 -1.13815,2.41163 q -9.29063,19.38801 -31.37063,21.16572 z"
         style="font-style:normal;font-variant:normal;font-weight:normal;font-stretch:normal;font-size:80px;line-height:125%;font-family:'Fugaz One';-inkscape-font-specification:'Fugaz One';letter-spacing:0px;word-spacing:0px;fill:#000000;fill-opacity:1;stroke:none;stroke-width:1px;stroke-linecap:butt;stroke-linejoin:miter;stroke-opacity:1"
         id="path5569"
         inkscape:connector-curvature="0" />
      <path
         inkscape:connector-curvature="0"
         id="path5613"
         d="m 326.37878,357.91559 -4.35916,9.16543 c 2.39557,2.34394 3.96801,5.34738 4.78884,8.39959 1.5109,5.61821 1.21354,11.95614 -0.28417,18.50335 l 1.81445,-0.14609 -0.1261,21.52969 16.16016,-1.30109 0.15288,-23.37168 c 2.20847,-1.08448 4.42481,-2.78347 6.65024,-5.09597 2.27875,-2.3168 4.28912,-5.27905 6.0321,-8.88605 l 3.10653,-6.49034 c 0.58664,-1.22058 1.04977,-2.37723 1.38915,-3.47123 0.9842,-3.17257 0.83774,-5.72047 -0.43744,-7.64447 -1.71155,-2.52886 -5.60826,-3.54847 -11.68826,-3.05895 l -23.19922,1.86781 z m 0.14551,36.06837 -1.20899,0.0973 c -0.0983,0.44635 -0.19401,0.89223 -0.3075,1.34116 l -2.24805,0.181 -3.15233,6.95106 3.26367,-0.26276 c -0.21911,0.59503 -0.43473,1.18983 -0.67167,1.78454 l -3.40625,0.27425 -2.57521,5.67999 3.41602,-0.27503 c -0.43448,0.85944 -0.88214,1.71724 -1.35916,2.57036 l -3.21485,0.25883 -1.80826,3.98739 -15.35938,1.23662 1.90006,-3.99478 -10.31445,0.83043 c 0.47701,-0.8531 0.92468,-1.71091 1.35916,-2.57035 l 10.17188,-0.81896 2.70606,-5.69053 -10.3125,0.83028 c 0.23695,-0.59472 0.45257,-1.18952 0.67168,-1.78455 l 10.49804,-0.84522 3.31249,-6.96395 -11.67383,0.93988 c 0.14914,-0.59015 0.27426,-1.17609 0.40409,-1.76301 l 12.125,-0.9762 2.70606,-5.69053 -13.90039,1.11914 c 0.0912,-0.83307 0.15031,-1.65692 0.19315,-2.47649 l 14.92383,-1.20154 2.13825,-4.49247 -17.07617,1.37484 c -0.0655,-1.01879 -0.17633,-2.0228 -0.33509,-3.00817 l 18.91211,-1.52266 1.60692,-3.38133 -21.24219,1.71025 c -0.32959,-1.11856 -0.77219,-2.22221 -1.30864,-3.28917 l 24.23047,-1.95084 1.12878,-2.37408 -26.65039,2.14567 c -0.80023,-1.15923 -1.75154,-2.23057 -2.84913,-3.17296 l 28.79688,-2.31849 c 0.55933,0.48024 1.08026,0.99449 1.56298,1.53627 l 0.44218,-0.92817 c -3.08125,-3.01486 -7.52388,-4.93816 -13.47611,-4.4658 l -0.002,1.6e-4 -29.99805,2.4152 -0.002,1.6e-4 -2.23438,0.1799 -0.0367,0.11819 c -9.78089,1.7009 -19.17833,9.11602 -25.13899,16.21149 -6.42107,7.64353 -10.64174,15.99247 -13.197,24.21682 l -0.003,0.008 -0.006,0.0181 c -2.2092,7.12239 -3.16181,14.13619 -2.15648,20.41972 l -107.15724,13.75635 108.48828,-8.73461 c 0.0157,0.0396 0.0288,0.0799 0.0448,0.11943 l -111.11204,14.82282 109.85742,-8.84485 -111.76643,14.99854 128.36523,-10.33494 0.0762,-0.006 c 0.67682,0.0101 1.37069,-0.005 2.09145,-0.0629 l 0.002,-1.6e-4 c 0.74431,-0.0598 1.48781,-0.15669 2.22886,-0.28492 l 25.62305,-2.06297 c 0.69255,0.0122 1.40719,-0.008 2.14613,-0.0673 l 0.002,-1.7e-4 c 10.58289,-0.85005 20.98207,-8.87669 27.40008,-16.52049 6.41802,-7.6438 10.63807,-15.99271 13.19116,-24.21635 0.49755,-1.60263 0.91098,-3.19554 1.27346,-4.78026 z m -4.94685,-25.97477 -0.86034,1.80951 2.14649,-0.17282 c -0.39244,-0.5685 -0.82163,-1.11531 -1.28615,-1.63669 z m -1.98912,4.18359 -1.67964,3.52976 7.55469,-0.60825 c -0.32959,-1.11855 -0.77219,-2.2222 -1.30864,-3.28916 l -4.56641,0.36765 z m -3.28656,6.91109 -1.50085,3.15599 11.7207,-0.94366 c -0.0655,-1.01878 -0.17633,-2.02279 -0.33509,-3.00817 l -9.88476,0.79584 z m -3.6391,7.64846 -1.21659,2.55889 14.89649,-1.19935 c 0.0912,-0.83307 0.15032,-1.65692 0.19314,-2.47649 l -13.87304,1.11695 z m -3.92265,8.24942 -0.85526,1.79933 14.875,-1.19762 0.62,-1.36633 1.93555,-0.15583 c 0.0309,-0.1404 0.0656,-0.2814 0.0966,-0.42184 l -16.67188,1.34228 z m -4.16775,8.76328 -0.85722,1.79949 15.07813,-1.21397 0.81425,-1.79603 -15.03516,1.21051 z m -3.56328,7.49002 -1.21659,2.55888 15.26758,-1.22923 1.15799,-2.55416 -15.20898,1.22451 z m -16.44086,-45.81695 28.79687,-2.31849 c 1.83026,0.43053 3.4519,1.13376 4.87477,2.03916 l -28.79688,2.3185 c -1.42286,-0.90541 -3.04449,-1.60864 -4.87476,-2.03917 z m 50.00056,4.29663 6,-0.48307 c 3.62667,-0.292 4.75207,1.77787 3.37759,6.20853 -0.7127,2.29738 -1.90264,4.20596 -3.57051,5.72692 -1.65088,1.46624 -3.88974,2.31317 -6.71641,2.54075 l -5.59961,0.45084 6.50894,-14.44397 z m -61.25841,12.10391 c 6.7769,-0.53763 9.26381,8.70934 5.55509,20.65627 -3.70902,11.94663 -12.20935,22.07041 -18.98815,22.61471 -6.77889,0.54378 -9.26968,-8.69899 -5.56406,-20.64578 l 0.006,-0.0181 c 3.71229,-11.94778 12.21398,-22.06853 18.99152,-22.60717 z m 13.37903,37.35056 28.79687,-2.31849 c -0.71879,1.08093 -1.4627,2.15601 -2.25865,3.217 l -28.79687,2.31849 c 0.79594,-1.06099 1.53986,-2.13606 2.25865,-3.217 z m -5.0609,6.69458 28.79688,-2.3185 c -1.05819,1.22964 -2.2013,2.46356 -3.44527,3.67192 l -28.79687,2.31849 c 1.24421,-1.20837 2.38705,-2.44212 3.44526,-3.67191 z m -6.201,6.17698 28.79883,-2.31865 c -1.58271,1.34969 -3.26363,2.63608 -5.02196,3.80667 l -28.79883,2.31865 c 1.75844,-1.17054 3.43897,-2.45703 5.02196,-3.80667 z m -7.73554,5.48219 28.79687,-2.3185 c -2.08182,1.1871 -4.24174,2.19871 -6.44945,2.9509 l -28.79883,2.31865 c 2.2081,-0.75202 4.36923,-1.76387 6.45141,-2.95105 z"
         style="color:#000000;clip-rule:nonzero;display:inline;overflow:visible;visibility:visible;opacity:1;isolation:auto;mix-blend-mode:normal;color-interpolation:sRGB;color-interpolation-filters:linearRGB;solid-color:#000000;solid-opacity:1;fill:#000000;fill-opacity:1;fill-rule:evenodd;stroke:none;stroke-width:13.08199978;stroke-linecap:butt;stroke-linejoin:miter;stroke-miterlimit:4;stroke-dasharray:none;stroke-dashoffset:13.64211082;stroke-opacity:1;color-rendering:auto;image-rendering:auto;shape-rendering:auto;text-rendering:auto;enable-background:accumulate" />
      <path
         d="m 160.54801,430.54696 q -11.36,0.91462 -14.00008,-4.15282 -1.78915,-3.53595 0.24712,-10.0999 0.94177,-3.03582 2.70172,-6.69752 l 7.89067,-16.63529 q 10.5815,-22.29194 33.0615,-24.10185 9.28,-0.74715 12.80733,2.96885 3.55279,3.63396 1.3638,10.6902 -0.89087,2.87173 -2.60719,5.88991 -1.63632,3.01175 -2.81448,4.5466 l -1.25816,1.5413 -14.16,1.14005 q 2.99632,-3.12124 4.19263,-6.97756 2.2908,-7.38444 -3.7092,-6.90136 -8.08,0.65053 -12.65804,10.37912 l -7.60704,15.97246 q -1.08725,2.24754 -1.74903,4.38082 -1.75628,5.6614 4.72372,5.13968 6.56,-0.52816 10.48717,-7.40434 l -6.56,0.52816 4.42532,-9.2363 21.2,-1.70685 -3.46899,7.1593 -1.13814,2.41163 q -9.29063,19.38801 -31.37063,21.16571 z"
         style="font-style:normal;font-variant:normal;font-weight:normal;font-stretch:normal;font-size:80px;line-height:125%;font-family:'Fugaz One';-inkscape-font-specification:'Fugaz One';letter-spacing:0px;word-spacing:0px;fill:#000000;fill-opacity:1;stroke:none;stroke-width:1px;stroke-linecap:butt;stroke-linejoin:miter;stroke-opacity:1"
         id="path5563"
         inkscape:connector-curvature="0" />
      <path
         d="m 227.03753,423.51376 -40.16,3.23336 28.48641,-59.8935 40.16,-3.23336 -6.21072,12.98004 -25.76,2.07399 -5.2762,11.22479 21.28,-1.71329 -6.21073,12.98004 -21.28,1.71329 -4.57804,9.72859 25.76,-2.07399 -6.21072,12.98004 z"
         style="font-style:normal;font-variant:normal;font-weight:normal;font-stretch:normal;font-size:80px;line-height:125%;font-family:'Fugaz One';-inkscape-font-specification:'Fugaz One';letter-spacing:0px;word-spacing:0px;fill:#000000;fill-opacity:1;stroke:none;stroke-width:1px;stroke-linecap:butt;stroke-linejoin:miter;stroke-opacity:1"
         id="path5565"
         inkscape:connector-curvature="0" />
      <text
         sodipodi:linespacing="125%"
         id="text5690"
         y="464.5036"
         x="311.11465"
         style="font-style:normal;font-weight:normal;font-size:180px;line-height:125%;font-family:sans-serif;letter-spacing:0px;word-spacing:0px;fill:#000000;fill-opacity:1;stroke:none;stroke-width:1px;stroke-linecap:butt;stroke-linejoin:miter;stroke-opacity:1"
         xml:space="preserve"><tspan
           style="font-style:normal;font-variant:normal;font-weight:normal;font-stretch:normal;font-size:60px;font-family:'Fugaz One';-inkscape-font-specification:'Fugaz One'"
           y="464.5036"
           x="311.11465"
           id="tspan5692"
           sodipodi:role="line">SINGLEY</tspan></text>
    </g>
  </g>
  <g
     inkscape:groupmode="layer"
     id="layer2"
     inkscape:label="Layer 2"
     style="display:inline"
     transform="translate(0,-452.36216)" />
</svg>
